<?xml version="1.0" encoding="utf-8"?>
<!-- Generator: Adobe Illustrator 19.2.0, SVG Export Plug-In . SVG Version: 6.00 Build 0)  -->
<!DOCTYPE svg PUBLIC "-//W3C//DTD SVG 1.1//EN" "http://www.w3.org/Graphics/SVG/1.1/DTD/svg11.dtd">
<svg version="1.1" id="Layer_1" xmlns="http://www.w3.org/2000/svg" xmlns:xlink="http://www.w3.org/1999/xlink" x="0px" y="0px"
	 viewBox="0 0 1224 192.3" style="enable-background:new 0 0 1224 192.3;" xml:space="preserve">
<style type="text/css">
	.st0{fill:#FFFFFF;}
</style>
<g>
	<g>
		<path class="st0" d="M113.3,30.4c-4.7-9.3-9.2-13.2-14.3-13.2c-5.7,0-11.8,5.8-11.8,18.7c0,11.5,5.9,19.3,14.4,19.3
			c2,0,4.3-0.7,6.1-1.7V41.3l-5.3-1.2v-1.1h17.2v1.1l-4.3,1.2v16.1l-0.8,0.2l-5.4-2.9c-2.9,1.7-7,3.3-11,3.3
			c-11.5,0-19.2-8.8-19.2-20.9c0-11.8,9.2-21.8,22-21.8c3.5,0,7.1,0.9,9.6,2.2l2.6-2.3h1l0.6,15.1L113.3,30.4z"/>
		<path class="st0" d="M177.7,29.3l-0.9,0.6l-5.3-7c-2.4-3.1-3.5-4.1-7.9-4.1h-8.2v16.4h3.2c3.3,0,5.3-1.5,6.5-5.6l0.7-2.5h1.2v18.2
			h-1.2L165,43c-1.2-4.2-3.2-5.8-6.5-5.8h-3.2v17.3h9.8c4.1,0,5.2-0.9,7.2-3.7l5.9-8l0.9,0.3l-1.6,13.7h-35.9v-1.1l6.1-1.2V18.8
			l-6.1-1.2v-1.1h34.7L177.7,29.3z"/>
		<path class="st0" d="M223.8,58c-13.6,0-20.3-9.6-20.3-21.4c0-11.8,7.6-21.3,20.7-21.3c13.6,0,20.4,9.6,20.4,21.3
			C244.6,48.4,236.9,58,223.8,58z M223.4,16.8c-6.4,0-11.5,4.8-11.5,19.8c0,15,5.9,20,12.8,20c6.4,0,11.6-6.5,11.6-20
			C236.2,23.2,230.3,16.8,223.4,16.8z"/>
		<path class="st0" d="M289.7,37v0.4c4.8,1.2,6.8,3.4,8.3,7c2.3,5.5,4,8,5,8.9c1.6,1.5,2.8,1.9,4.9,2.3v1.2h-7
			c-5.6,0-6.6-2.1-8.7-6.8l-3.1-7c-1.7-3.9-3.4-4.7-7.1-4.7h-2v16.1l6.1,1.2v1.1h-19.8v-1.1l6.1-1.2V18.8l-6.1-1.2v-1.1H287
			c9.8,0,14.8,4.1,14.8,10.2C301.8,31.9,297.7,35.6,289.7,37z M284.3,18.5c-2,0-3.8,0.2-4.4,0.2v17.7h4c5.6,0,9.8-3.3,9.8-9.1
			C293.7,21.5,289.5,18.5,284.3,18.5z"/>
		<path class="st0" d="M361.1,30.4c-4.7-9.3-9.2-13.2-14.3-13.2c-5.7,0-11.8,5.8-11.8,18.7c0,11.5,5.9,19.3,14.4,19.3
			c2,0,4.3-0.7,6.1-1.7V41.3l-5.3-1.2v-1.1h17.2v1.1l-4.3,1.2v16.1l-0.8,0.2l-5.4-2.9c-2.9,1.7-7,3.3-11,3.3
			c-11.5,0-19.2-8.8-19.2-20.9c0-11.8,9.2-21.8,22-21.8c3.5,0,7.1,0.9,9.6,2.2l2.6-2.3h1l0.6,15.1L361.1,30.4z"/>
		<path class="st0" d="M423.9,29.3l-0.9,0.6l-5.3-7c-2.4-3.1-3.5-4.1-7.9-4.1h-8.2v16.4h3.2c3.3,0,5.3-1.5,6.5-5.6l0.7-2.5h1.2v18.2
			h-1.2l-0.7-2.3c-1.2-4.2-3.2-5.8-6.5-5.8h-3.2v17.3h9.8c4.1,0,5.2-0.9,7.2-3.7l5.9-8l0.9,0.3l-1.6,13.7h-35.9v-1.1l6.1-1.2V18.8
			l-6.1-1.2v-1.1h34.7L423.9,29.3z"/>
		<path class="st0" d="M509.2,19.1l-4.7-1.6v-1.1h17.7v1.1l-5.4,1.2l9,28.7h0.2l7.9-28l-4.6-2v-1.1h12.2v1.1l-4.5,1.9l-12.2,37.7
			h-2.6L512.2,28h-0.2l-11,29.2h-2.6l-11.7-38l-5.4-1.6v-1.1H500v1.1l-5.4,1.2l7.9,28.7h0.2l8.3-23.4L509.2,19.1z"/>
		<path class="st0" d="M562,54l4.8,1.6v1.2h-12.4v-1.2l4.5-1.7l14.9-38.2h4l14.5,38.4l5.2,1.5v1.2h-19.1v-1.2l6-1.1l-4.2-11.6h-14.2
			L562,54z M573.4,23.3h-0.2L567,40.4h12.5L573.4,23.3z"/>
		<path class="st0" d="M632.6,58c-4.2,0-7.4-0.9-9.8-2l-2.6,2.2h-1.1l-0.8-14.5l1.4-0.2c4.7,9.5,8.8,12.7,13.4,12.7
			c5,0,8.2-3.1,8.2-7.2c0-5-3.7-7-8.1-8.8c-2.5-1-5.2-1.8-7.5-2.9c-3.8-1.9-6.7-4.6-6.7-9.8c0-7.6,7-12.3,13.9-12.3
			c3.2,0,5.7,0.7,8.1,2.1l2.5-2.4h1.2l1,13.3l-1.5,0.2c-4.8-8-7.9-11.2-12.4-11.2c-4,0-7,2.8-7,6.6c0,4,2.9,5.9,6.5,7.4
			c2.4,1,5.1,1.8,7.6,2.9c4.4,2,8.1,4.7,8.1,11C647,53.2,639.8,58,632.6,58z"/>
		<path class="st0" d="M703.2,18.8l-6.1-1.2v-1.1h19.8v1.1l-6.1,1.2v35.6l6.1,1.2v1.1H697v-1.1l6.1-1.2V37.1h-20v17.3l6.1,1.2v1.1
			h-19.8v-1.1l6.1-1.2V18.8l-6.1-1.2v-1.1h19.8v1.1l-6.1,1.2v15.9h20V18.8z"/>
		<path class="st0" d="M758.4,55.6v1.1h-20.5v-1.1l6.5-1.2V18.8l-6.5-1.2v-1.1h20.5v1.1l-6.5,1.2v35.6L758.4,55.6z"/>
		<path class="st0" d="M786.7,19.3l-5.2-1.7v-1.1h12.9l5.1,6.9L816,45.2h0.6V19.4l-5.4-1.8v-1.1h13v1.1l-5.2,1.8v38h-3.2l-5.1-7
			l-21.1-27.9H789v31.3l5.4,1.8v1.1h-13v-1.1l5.2-1.8V19.3z"/>
		<path class="st0" d="M879.8,30.4c-4.7-9.3-9.2-13.2-14.3-13.2c-5.7,0-11.8,5.8-11.8,18.7c0,11.5,5.9,19.3,14.4,19.3
			c2,0,4.3-0.7,6.1-1.7V41.3l-5.3-1.2v-1.1h17.2v1.1l-4.3,1.2v16.1l-0.8,0.2l-5.4-2.9c-2.9,1.7-7,3.3-11,3.3
			c-11.5,0-19.2-8.8-19.2-20.9c0-11.8,9.2-21.8,22-21.8c3.5,0,7.1,0.9,9.6,2.2l2.6-2.3h1l0.6,15.1L879.8,30.4z"/>
		<path class="st0" d="M943.7,30.8l-3.8-5.4c-3.4-4.8-5-6.5-8.7-6.5h-2.8v35.6l6.5,1.2v1.1h-20.5v-1.1l6.5-1.2V18.8h-3.4
			c-3.6,0-5.2,1.7-8.6,6.5l-3.8,5.4l-0.8-0.3l2.5-14H942l2.5,14L943.7,30.8z"/>
		<path class="st0" d="M984.2,58c-13.6,0-20.3-9.6-20.3-21.4c0-11.8,7.6-21.3,20.7-21.3c13.6,0,20.4,9.6,20.4,21.3
			C1005,48.4,997.3,58,984.2,58z M983.8,16.8c-6.4,0-11.5,4.8-11.5,19.8c0,15,5.9,20,12.8,20c6.4,0,11.6-6.5,11.6-20
			C996.7,23.2,990.7,16.8,983.8,16.8z"/>
		<path class="st0" d="M1030.6,19.3l-5.2-1.7v-1.1h12.9l5.1,6.9l16.6,21.9h0.6V19.4l-5.4-1.8v-1.1h13v1.1l-5.2,1.8v38h-3.2l-5.1-7
			l-21.1-27.9h-0.6v31.3l5.4,1.8v1.1h-13v-1.1l5.2-1.8V19.3z"/>
		<path class="st0" d="M1091.3,33.8l-0.8-1c4.6-3.9,6.1-6.5,6.8-8.9l-0.2-0.1l-1.4,0.3c-0.4,0.2-0.8,0.2-1.2,0.2
			c-2.3,0-3.9-1.8-3.9-4.2c0-2.7,2.1-5,4.9-5c3.5,0,5.6,2.8,5.6,6.8C1101.1,26,1098,30.4,1091.3,33.8z"/>
		<path class="st0" d="M1133.3,58c-4.2,0-7.4-0.9-9.8-2l-2.6,2.2h-1.1l-0.8-14.5l1.4-0.2c4.7,9.5,8.8,12.7,13.4,12.7
			c5,0,8.2-3.1,8.2-7.2c0-5-3.7-7-8.1-8.8c-2.5-1-5.2-1.8-7.5-2.9c-3.8-1.9-6.7-4.6-6.7-9.8c0-7.6,7-12.3,13.9-12.3
			c3.2,0,5.7,0.7,8.1,2.1l2.5-2.4h1.2l1,13.3l-1.5,0.2c-4.8-8-7.9-11.2-12.4-11.2c-4,0-7,2.8-7,6.6c0,4,2.9,5.9,6.5,7.4
			c2.4,1,5.1,1.8,7.6,2.9c4.4,2,8.1,4.7,8.1,11C1147.7,53.2,1140.5,58,1133.3,58z"/>
	</g>
	<g>
		<polygon class="st0" points="583.2,105.4 589.4,124.5 609.5,124.5 593.2,136.3 599.4,155.4 583.2,143.6 566.9,155.4 573.1,136.3 
			556.9,124.5 577,124.5 		"/>
		<g>
			<path class="st0" d="M118.9,171.8v2.2h-40v-2.2l9.6-3.1v-67.8h-0.9L60,174h-3.6l-29.3-73h-0.9v66.6l10.9,4.2v2.2H9.7v-2.2
				l11.1-4.2V97.6L9.7,94.3v-2.2h34.8l5,13.2l15.3,41.4h0.6l15.3-41.4l4.9-13.2h33.2v2.2l-11.1,3.1v71.4L118.9,171.8z"/>
			<path class="st0" d="M177.1,175.9c-27.9,0-40.9-19.7-40.9-42.9c0-23.1,14.9-42.8,41.7-42.8c28,0,40.9,19.7,40.9,42.8
				C218.8,156.2,203.8,175.9,177.1,175.9z M176.5,94.3c-11.8,0-19.2,9.8-19.2,38.7c0,29.1,8.4,38.7,21.2,38.7
				c11.8,0,19.2-13,19.2-38.7C197.7,107.2,189.3,94.3,176.5,94.3z"/>
			<path class="st0" d="M296.9,94.3v-2.2h24.2v2.2l-9.4,4.2V147c0,18.6-12.9,28.9-31.2,28.9c-21.7,0-34.7-9.9-34.7-31.2V97.3
				l-11.1-3.1v-2.2h41.5v2.2L265,97.3v49.9c0,13.8,6.8,20.8,20.6,20.8c13.1,0,20.6-8.1,20.6-22.2V98.5L296.9,94.3z"/>
			<path class="st0" d="M347.2,98.5L337,94.3v-2.2h26.6l10.4,13.1l32.9,40.4h0.9V98.9l-10.9-4.6v-2.2h27.4v2.2l-10.9,4.6v75.9h-7.2
				l-10.5-13.1l-42-50.7h-0.9v56.2l10.9,4.6v2.2h-27.4v-2.2l10.9-4.6V98.5z"/>
			<path class="st0" d="M516.9,121.4l-11.7-15.8c-5-6.8-8.2-8.5-14.7-9l-1.7-0.1v72.3l11.6,3.1v2.2H458v-2.2l11.6-3.1V96.4l-2.2,0.1
				c-6.4,0.4-9.5,2.2-14.5,9L441,121.4l-2.7-0.6l3.6-28.7h74.2l3.6,28.7L516.9,121.4z"/>
		</g>
		<g>
			<path class="st0" d="M681.4,174.7h-4.8L645.4,98l-10.3-3.7v-2.2h40.8v2.2l-10.2,3.1l19.9,54.1l18.9-52.2l-8.6-5v-2.2h25.3v2.2
				l-7.8,4.2L681.4,174.7z"/>
			<path class="st0" d="M808.9,119.7l-2.4,0.6l-10-14.1c-4.6-6.6-7.8-8.9-16.8-9.3l-11.7-0.5v34.1h4.4c7.3,0,10.3-2.6,13.2-10.5
				l1.5-4.2h2.7v34.6H787l-1.5-4c-3.1-8-5.9-10.5-13.2-10.5h-4.4v33.7l15.8-0.8c7.2-0.4,11.4-3.1,15.7-8.5l10.4-13.4l2.4,0.5
				l-2.4,26.6h-72.4v-2.2l11.2-3.1V97.3l-11.2-3.1v-2.2h69.7L808.9,119.7z"/>
			<path class="st0" d="M882.3,133.7v0.6c11.8,1.8,16.7,7.5,19.4,15.4c2.7,8.1,4.9,13.2,7.8,16.8c2.2,2.6,4.5,4.1,7.5,5.1v2.2h-15.6
				c-10,0-13.1-3.7-17.4-14.4l-5.3-13.2c-2.8-7.2-7.1-9.3-15.4-9.3H862v31.6l11.1,3.1v2.2h-41.5v-2.2l11.2-3.1V97.3l-11.2-3.1v-2.2
				H880c18.3,0,26.6,9.9,26.6,20.1C906.6,121.9,899.5,131,882.3,133.7z M869.9,96.8l-8-0.3v36.1l8-0.3c9.5-0.3,17-6.3,17-17.6
				C886.9,103.5,879.5,97.1,869.9,96.8z"/>
			<path class="st0" d="M941.4,98.5l-10.2-4.2v-2.2h26.6l10.4,13.1l32.9,40.4h0.9V98.9l-10.9-4.6v-2.2h27.4v2.2l-10.9,4.6v75.9h-7.2
				l-10.5-13.1l-42-50.7h-0.9v56.2l10.9,4.6v2.2h-27.4v-2.2l10.9-4.6V98.5z"/>
			<path class="st0" d="M1071.6,175.9c-27.9,0-40.9-19.7-40.9-42.9c0-23.1,14.9-42.8,41.7-42.8c28,0,40.9,19.7,40.9,42.8
				C1113.3,156.2,1098.4,175.9,1071.6,175.9z M1071,94.3c-11.8,0-19.2,9.8-19.2,38.7c0,29.1,8.4,38.7,21.2,38.7
				c11.8,0,19.2-13,19.2-38.7C1092.2,107.2,1083.9,94.3,1071,94.3z"/>
			<path class="st0" d="M1139.6,98.5l-10.2-4.2v-2.2h26.6l10.4,13.1l32.9,40.4h0.9V98.9l-10.9-4.6v-2.2h27.4v2.2l-10.9,4.6v75.9
				h-7.2l-10.5-13.1l-42-50.7h-0.9v56.2l10.9,4.6v2.2h-27.4v-2.2l10.9-4.6V98.5z"/>
		</g>
	</g>
</g>
</svg>
