<?xml version="1.0" encoding="UTF-8" standalone="no"?><!DOCTYPE svg PUBLIC "-//W3C//DTD SVG 1.1//EN" "http://www.w3.org/Graphics/SVG/1.1/DTD/svg11.dtd"><svg width="100%" height="100%" viewBox="0 0 80 80" version="1.1" xmlns="http://www.w3.org/2000/svg" xmlns:xlink="http://www.w3.org/1999/xlink" xml:space="preserve" style="fill-rule:evenodd;clip-rule:evenodd;stroke-linejoin:round;stroke-miterlimit:1.41421;"><path d="M67.42,29.028c-0.281,-4.619 -2.408,-8.937 -5.688,-11.551c-2.847,-2.269 -6.613,-3.57 -10.334,-3.57c-5.677,0 -9.258,2.377 -11.398,5.249c-2.14,-2.872 -5.721,-5.25 -11.398,-5.25c-3.721,0 -7.487,1.302 -10.333,3.571c-3.281,2.614 -5.408,6.932 -5.689,11.551c-0.24,3.948 0.75,9.945 6.831,16.1c10.313,10.437 20.59,20.966 20.59,20.966c0,0 10.275,-10.53 20.588,-20.966c6.081,-6.155 7.071,-12.152 6.831,-16.1Zm-10.779,12.372c-7.325,7.411 -13.588,13.802 -16.64,16.922c-3.053,-3.12 -9.318,-9.511 -16.641,-16.922c-4.697,-4.754 -5.475,-9.178 -5.299,-12.053c0.225,-3.705 2.047,-6.412 3.677,-7.71c1.856,-1.48 4.422,-2.364 6.864,-2.364c7.848,0 8.565,6.822 8.658,7.517c0.132,0.986 0.919,2.143 2.86,2.143c1.836,0 2.437,-1.241 2.619,-2.126c0.157,-0.764 0.812,-7.534 8.659,-7.534c2.442,0 5.008,0.884 6.865,2.364c1.629,1.298 3.451,4.005 3.676,7.71c0.176,2.875 -0.602,7.299 -5.298,12.053Z" style="fill:#fff;"/></svg>
