<?xml version="1.0" encoding="UTF-8" standalone="no"?><!DOCTYPE svg PUBLIC "-//W3C//DTD SVG 1.1//EN" "http://www.w3.org/Graphics/SVG/1.1/DTD/svg11.dtd"><svg width="100%" height="100%" viewBox="0 0 80 80" version="1.1" xmlns="http://www.w3.org/2000/svg" xmlns:xlink="http://www.w3.org/1999/xlink" xml:space="preserve" style="fill-rule:evenodd;clip-rule:evenodd;stroke-linejoin:round;stroke-miterlimit:1.41421;"><path d="M50.344,12l-20.688,0c-3.308,0 -5.989,2.758 -5.989,6.16l0,43.68c0,3.402 2.681,6.16 5.989,6.16l20.688,0c3.308,0 5.989,-2.758 5.989,-6.16l0,-43.68c0,-3.402 -2.681,-6.16 -5.989,-6.16Zm-10.344,53.2c-1.804,0 -3.267,-1.504 -3.267,-3.36c0,-1.856 1.463,-3.36 3.267,-3.36c1.804,0 3.267,1.504 3.267,3.36c0,1.856 -1.463,3.36 -3.267,3.36Zm11.978,-10.08l-23.956,0l0,-35.28l23.956,0l0,35.28Z" style="fill:#fff;"/></svg>
