<?xml version="1.0" encoding="UTF-8" standalone="no"?><!DOCTYPE svg PUBLIC "-//W3C//DTD SVG 1.1//EN" "http://www.w3.org/Graphics/SVG/1.1/DTD/svg11.dtd"><svg width="100%" height="100%" viewBox="0 0 80 80" version="1.1" xmlns="http://www.w3.org/2000/svg" xmlns:xlink="http://www.w3.org/1999/xlink" xml:space="preserve" style="fill-rule:evenodd;clip-rule:evenodd;stroke-linejoin:round;stroke-miterlimit:1.41421;"><g><path d="M42.503,54.902c0.128,4.092 -1.807,8.502 -2.503,9.278c-0.695,-0.776 -2.631,-5.18 -2.504,-9.278l-4.018,0c-0.705,1.662 -0.777,4.424 -0.667,5.964c0.437,6.125 5.997,13.235 7.189,14.134c1.192,-0.899 6.752,-8.009 7.189,-14.134c0.11,-1.54 0.038,-4.302 -0.668,-5.964l-4.018,0Z" style="fill:#fff;"/><path d="M55.98,42.703l-5.201,-7.666l0,-14.209c0,-8.236 -5.578,-13.826 -10.118,-15.694c-0.432,-0.179 -0.916,-0.179 -1.348,0c-4.668,1.921 -10.118,7.546 -10.118,15.694l0,14.24l-5.175,7.636c-0.799,1.178 0.043,2.78 1.463,2.78l6.789,0c-1.08,1.59 -1.748,3.686 -2.015,6.303c-0.054,0.524 0.356,0.98 0.88,0.98l17.728,0c0.552,0 0.97,-0.502 0.871,-1.047c-0.271,-2.586 -0.938,-4.66 -2.008,-6.236l6.788,0c1.42,0 2.264,-1.601 1.464,-2.781Zm-15.993,-33.941c3.519,1.929 6.302,5.282 7.041,9.565l-14.082,0c0.74,-4.292 3.539,-7.646 7.041,-9.565Zm2.138,33.164l0,-5.476c0,-1.179 -0.952,-2.134 -2.125,-2.134c-1.174,0 -2.125,0.955 -2.125,2.134l0,5.476l-9.043,0l3.598,-5.308c0.2,-0.296 0.307,-0.645 0.307,-1.002l0,-13.732l14.5,0l0,13.701c0,0.358 0.107,0.707 0.308,1.002l3.622,5.339l-9.042,0Z" style="fill:#fff;"/></g></svg>
