<?xml version="1.0" encoding="UTF-8" standalone="no"?><!DOCTYPE svg PUBLIC "-//W3C//DTD SVG 1.1//EN" "http://www.w3.org/Graphics/SVG/1.1/DTD/svg11.dtd"><svg width="100%" height="100%" viewBox="0 0 80 80" version="1.1" xmlns="http://www.w3.org/2000/svg" xmlns:xlink="http://www.w3.org/1999/xlink" xml:space="preserve" style="fill-rule:evenodd;clip-rule:evenodd;stroke-linejoin:round;stroke-miterlimit:1.41421;"><path d="M66.933,42.535l-4.622,2.687l-26.767,15.897c-2.99,-2.028 0.417,0.211 -22.626,-14.802c-0.739,0.369 -1.817,0.743 -1.894,2.074c-0.041,0.718 0.306,1.403 0.912,1.798l22.389,14.983c0.653,0.443 1.507,0.47 2.188,0.066l31.479,-18.697c0.631,-0.374 1.008,-1.058 0.986,-1.787c-0.04,-1.359 -1.134,-1.749 -2.045,-2.219Z" style="fill:#fff;"/><path d="M11.951,42.135l22.421,14.335c0.636,0.407 1.452,0.429 2.113,0.051l31.479,-18.027c0.642,-0.368 1.031,-1.053 1.015,-1.788c-0.031,-1.399 -1.166,-1.781 -2.225,-2.328c-5.332,3.366 -3.974,2.435 -31.225,18.04c0,0 -21.311,-13.655 -22.317,-14.312c-0.991,0.496 -2.115,0.857 -2.189,2.229c-0.038,0.722 0.316,1.408 0.928,1.8Z" style="fill:#fff;"/><path d="M11.877,33.64c0.077,0.055 1.966,1.378 7.922,5.164c1.218,0.774 2.576,1.224 4.054,1.244c0,0 24.112,0.006 24.354,0.006c1.834,0 3.578,-0.447 5.183,-1.306c7.975,-4.266 14.426,-8.588 14.697,-8.769c1.262,-0.848 1.173,-2.752 -0.2,-3.461l-22.874,-11.814c-0.578,-0.299 -1.267,-0.303 -1.849,-0.012l-31.027,15.507c-1.362,0.68 -1.509,2.563 -0.26,3.441Zm32.184,-14.887l18.867,9.745c-2.635,1.662 -6.82,4.209 -11.463,6.694c-1.022,0.546 -2.088,0.812 -3.259,0.812c-5.611,0 -11.162,-6.128 -11.215,-6.188c-0.81,-0.909 -2.224,-0.926 -3.048,0.009c-1.505,1.708 -6.228,6.146 -9.96,6.146c-0.747,0 -1.4,-0.182 -1.995,-0.561c-2.133,-1.356 -3.741,-2.393 -4.924,-3.165l26.997,-13.492Z" style="fill:#fff;"/></svg>
