<?xml version="1.0" encoding="UTF-8" standalone="no"?><!DOCTYPE svg PUBLIC "-//W3C//DTD SVG 1.1//EN" "http://www.w3.org/Graphics/SVG/1.1/DTD/svg11.dtd"><svg width="100%" height="100%" viewBox="0 0 80 120" version="1.1" xmlns="http://www.w3.org/2000/svg" xmlns:xlink="http://www.w3.org/1999/xlink" xml:space="preserve" style="fill-rule:evenodd;clip-rule:evenodd;stroke-linejoin:round;stroke-miterlimit:1.41421;"><g><g><path d="M54.126,67.688l10.335,0l-19.065,-53.643c0,0 -0.009,-0.028 -0.031,-0.088c-0.835,-2.238 -2.998,-3.717 -5.412,-3.698c-2.413,0.021 -4.553,1.536 -5.349,3.786l-19.065,53.643l9.953,0l3.522,-10.29l21.59,0l3.522,10.29Z" style="fill:#fff;"/><rect x="13.412" y="78.395" width="53.175" height="2.127" style="fill:#fff;"/></g><g><path d="M0,92.94l2.275,0l0,14.526l7.251,0l0,2.062l-9.526,0l0,-16.588Z" style="fill:#fff;fill-rule:nonzero;"/><path d="M22.156,98.213c0.838,0.861 1.256,2.05 1.256,3.566l0,7.749l-2.203,0l0,-7.156c0,-1.059 -0.297,-1.884 -0.889,-2.477c-0.593,-0.592 -1.41,-0.888 -2.453,-0.888c-1.121,0.015 -2.034,0.375 -2.737,1.078c-0.703,0.703 -1.102,1.615 -1.196,2.737l0,6.706l-2.204,0l0,-12.536l2.204,0l0,2.654c0.837,-1.785 2.425,-2.693 4.763,-2.725c1.469,0 2.622,0.431 3.459,1.292Z" style="fill:#fff;fill-rule:nonzero;"/><path d="M38.555,91.945l0,17.583l-2.204,0l0,-2.488c-0.474,0.837 -1.11,1.481 -1.908,1.931c-0.798,0.45 -1.726,0.675 -2.784,0.675c-1.185,0 -2.232,-0.272 -3.14,-0.817c-0.908,-0.545 -1.615,-1.303 -2.121,-2.275c-0.505,-0.972 -0.758,-2.081 -0.758,-3.329c0,-1.233 0.253,-2.327 0.758,-3.282c0.506,-0.956 1.213,-1.703 2.121,-2.24c0.908,-0.537 1.947,-0.805 3.116,-0.805c1.074,0 2.014,0.221 2.82,0.663c0.806,0.442 1.438,1.082 1.896,1.92l0,-7.536l2.204,0Zm-4.254,15.237c0.64,-0.379 1.141,-0.908 1.505,-1.588c0.363,-0.679 0.545,-1.445 0.545,-2.298c0,-0.869 -0.182,-1.643 -0.545,-2.323c-0.364,-0.679 -0.865,-1.208 -1.505,-1.587c-0.64,-0.379 -1.371,-0.569 -2.192,-0.569c-0.821,0 -1.552,0.194 -2.192,0.581c-0.64,0.387 -1.141,0.92 -1.505,1.599c-0.363,0.679 -0.545,1.446 -0.545,2.299c0,0.853 0.182,1.619 0.545,2.298c0.364,0.68 0.865,1.209 1.505,1.588c0.64,0.379 1.371,0.569 2.192,0.569c0.821,0 1.552,-0.19 2.192,-0.569Z" style="fill:#fff;fill-rule:nonzero;"/><path d="M46.469,97.644c0.758,-0.466 1.659,-0.707 2.702,-0.723l0,2.133c-1.28,-0.047 -2.315,0.284 -3.105,0.995c-0.79,0.711 -1.24,1.667 -1.35,2.868l0,6.611l-2.204,0l0,-12.536l2.204,0l0,2.702c0.41,-0.901 0.995,-1.584 1.753,-2.05Z" style="fill:#fff;fill-rule:nonzero;"/><path d="M52.31,107.395c0.245,0.253 0.368,0.577 0.368,0.972c0,0.395 -0.123,0.723 -0.368,0.983c-0.244,0.261 -0.549,0.391 -0.912,0.391c-0.363,0 -0.671,-0.13 -0.924,-0.391c-0.253,-0.26 -0.379,-0.588 -0.379,-0.983c0,-0.395 0.126,-0.719 0.379,-0.972c0.253,-0.253 0.561,-0.379 0.924,-0.379c0.363,0 0.668,0.126 0.912,0.379Z" style="fill:#fff;fill-rule:nonzero;"/><path d="M60.735,98.888c-0.822,0 -1.553,0.182 -2.192,0.545c-0.64,0.363 -1.142,0.877 -1.505,1.54c-0.363,0.664 -0.545,1.43 -0.545,2.299c0,0.869 0.178,1.635 0.533,2.299c0.356,0.663 0.845,1.18 1.469,1.552c0.624,0.371 1.339,0.557 2.145,0.557c0.805,0 1.532,-0.135 2.18,-0.403c0.648,-0.269 1.185,-0.656 1.611,-1.161l1.256,1.279c-0.569,0.711 -1.291,1.256 -2.168,1.635c-0.877,0.379 -1.868,0.569 -2.974,0.569c-1.216,0 -2.299,-0.269 -3.246,-0.806c-0.948,-0.537 -1.687,-1.283 -2.216,-2.239c-0.529,-0.956 -0.794,-2.05 -0.794,-3.282c0,-1.232 0.265,-2.33 0.794,-3.294c0.529,-0.964 1.268,-1.714 2.216,-2.251c0.947,-0.537 2.03,-0.806 3.246,-0.806c1.058,0 2.01,0.162 2.855,0.486c0.846,0.324 1.553,0.794 2.121,1.41l-1.208,1.517c-0.995,-0.964 -2.188,-1.446 -3.578,-1.446Z" style="fill:#fff;fill-rule:nonzero;"/><path d="M76.908,97.727c0.971,0.537 1.729,1.284 2.274,2.239c0.545,0.956 0.818,2.05 0.818,3.282c0,1.233 -0.273,2.33 -0.818,3.294c-0.545,0.964 -1.303,1.714 -2.274,2.251c-0.972,0.537 -2.082,0.806 -3.33,0.806c-1.264,0 -2.381,-0.269 -3.353,-0.806c-0.971,-0.537 -1.73,-1.283 -2.275,-2.239c-0.545,-0.956 -0.817,-2.058 -0.817,-3.306c0,-1.232 0.272,-2.326 0.817,-3.282c0.545,-0.955 1.304,-1.702 2.275,-2.239c0.972,-0.537 2.089,-0.806 3.353,-0.806c1.248,0 2.358,0.269 3.33,0.806Zm-5.522,1.682c-0.64,0.38 -1.137,0.905 -1.493,1.576c-0.355,0.672 -0.533,1.434 -0.533,2.287c0,0.869 0.178,1.643 0.533,2.322c0.356,0.68 0.853,1.205 1.493,1.576c0.64,0.371 1.371,0.557 2.192,0.557c0.806,0 1.529,-0.186 2.168,-0.557c0.64,-0.371 1.138,-0.896 1.493,-1.576c0.356,-0.679 0.534,-1.453 0.534,-2.322c0,-0.853 -0.178,-1.615 -0.534,-2.287c-0.355,-0.671 -0.853,-1.196 -1.493,-1.576c-0.639,-0.379 -1.362,-0.568 -2.168,-0.568c-0.821,0 -1.552,0.189 -2.192,0.568Z" style="fill:#fff;fill-rule:nonzero;"/></g></g></svg>
